<?xml version="1.0" standalone="no"?>
<svg xmlns:xlink="http://www.w3.org/1999/xlink" id="wave" style="transform:rotate(180deg); transition: 0.3s" viewBox="0 0 1440 100" version="1.1" xmlns="http://www.w3.org/2000/svg"><defs><linearGradient id="sw-gradient-0" x1="0" x2="0" y1="1" y2="0"><stop stop-color="rgba(243, 194.205, 62, 1)" offset="0%"/><stop stop-color="rgba(0, 0, 0, 1)" offset="100%"/></linearGradient></defs><path style="transform:translate(0, 0px); opacity:1" fill="url(#sw-gradient-0)" d="M0,40L62.6,40L125.2,60L187.8,40L250.4,70L313,60L375.7,40L438.3,40L500.9,50L563.5,20L626.1,70L688.7,0L751.3,60L813.9,30L876.5,0L939.1,30L1001.7,10L1064.3,60L1127,10L1189.6,80L1252.2,0L1314.8,10L1377.4,50L1440,20L1502.6,70L1502.6,100L1440,100L1377.4,100L1314.8,100L1252.2,100L1189.6,100L1127,100L1064.3,100L1001.7,100L939.1,100L876.5,100L813.9,100L751.3,100L688.7,100L626.1,100L563.5,100L500.9,100L438.3,100L375.7,100L313,100L250.4,100L187.8,100L125.2,100L62.6,100L0,100Z"/></svg>